<svg width="151" height="58" viewBox="0 0 151 58" fill="none" xmlns="http://www.w3.org/2000/svg">
<rect width="140" height="58" rx="29" fill="#E66100"/>
<path d="M24.5455 41H17.7273L25.4091 17.7273H34.0455L41.7273 41H34.9091L29.8182 24.1364H29.6364L24.5455 41ZM23.2727 31.8182H36.0909V36.5455H23.2727V31.8182ZM43.9688 41V17.7273H50.2415V26.5909H50.3324C50.5597 26 50.893 25.4583 51.3324 24.9659C51.7718 24.4659 52.3172 24.0682 52.9688 23.7727C53.6203 23.4697 54.3778 23.3182 55.2415 23.3182C56.393 23.3182 57.4877 23.625 58.5256 24.2386C59.571 24.8523 60.4195 25.8182 61.071 27.1364C61.7301 28.4545 62.0597 30.1667 62.0597 32.2727C62.0597 34.2879 61.7453 35.9583 61.1165 37.2841C60.4953 38.6098 59.6619 39.5985 58.6165 40.25C57.5786 40.9015 56.4384 41.2273 55.196 41.2273C54.3778 41.2273 53.6468 41.0947 53.0028 40.8295C52.3665 40.5568 51.821 40.1894 51.3665 39.7273C50.9195 39.2576 50.5748 38.7273 50.3324 38.1364H50.196V41H43.9688ZM50.1051 32.2727C50.1051 33.1212 50.215 33.8561 50.4347 34.4773C50.6619 35.0909 50.9801 35.5682 51.3892 35.9091C51.8059 36.2424 52.3021 36.4091 52.8778 36.4091C53.4536 36.4091 53.9422 36.2462 54.3438 35.9205C54.7528 35.5871 55.0634 35.1136 55.2756 34.5C55.4953 33.8788 55.6051 33.1364 55.6051 32.2727C55.6051 31.4091 55.4953 30.6705 55.2756 30.0568C55.0634 29.4356 54.7528 28.9621 54.3438 28.6364C53.9422 28.303 53.4536 28.1364 52.8778 28.1364C52.3021 28.1364 51.8059 28.303 51.3892 28.6364C50.9801 28.9621 50.6619 29.4356 50.4347 30.0568C50.215 30.6705 50.1051 31.4091 50.1051 32.2727ZM73.0938 41.3182C71.1998 41.3182 69.5786 40.9432 68.2301 40.1932C66.8816 39.4356 65.8475 38.3826 65.1278 37.0341C64.4081 35.678 64.0483 34.1061 64.0483 32.3182C64.0483 30.5303 64.4081 28.9621 65.1278 27.6136C65.8475 26.2576 66.8816 25.2045 68.2301 24.4545C69.5786 23.697 71.1998 23.3182 73.0938 23.3182C74.9877 23.3182 76.6089 23.697 77.9574 24.4545C79.3059 25.2045 80.34 26.2576 81.0597 27.6136C81.7794 28.9621 82.1392 30.5303 82.1392 32.3182C82.1392 34.1061 81.7794 35.678 81.0597 37.0341C80.34 38.3826 79.3059 39.4356 77.9574 40.1932C76.6089 40.9432 74.9877 41.3182 73.0938 41.3182ZM73.1392 36.6818C73.6695 36.6818 74.1278 36.5038 74.5142 36.1477C74.9006 35.7917 75.1998 35.2841 75.4119 34.625C75.6241 33.9659 75.7301 33.1818 75.7301 32.2727C75.7301 31.3561 75.6241 30.572 75.4119 29.9205C75.1998 29.2614 74.9006 28.7538 74.5142 28.3977C74.1278 28.0417 73.6695 27.8636 73.1392 27.8636C72.5786 27.8636 72.0975 28.0417 71.696 28.3977C71.2945 28.7538 70.9877 29.2614 70.7756 29.9205C70.5634 30.572 70.4574 31.3561 70.4574 32.2727C70.4574 33.1818 70.5634 33.9659 70.7756 34.625C70.9877 35.2841 71.2945 35.7917 71.696 36.1477C72.0975 36.5038 72.5786 36.6818 73.1392 36.6818ZM96.0028 33.3636V23.5455H102.276V41H96.321V37.6818H96.1392C95.7604 38.7955 95.0975 39.6667 94.1506 40.2955C93.2036 40.9167 92.0786 41.2273 90.7756 41.2273C89.5559 41.2273 88.4877 40.947 87.571 40.3864C86.6619 39.8258 85.9536 39.053 85.446 38.0682C84.946 37.0833 84.6922 35.9545 84.6847 34.6818V23.5455H90.9574V33.3636C90.965 34.2273 91.1847 34.9053 91.6165 35.3977C92.0559 35.8902 92.6695 36.1364 93.4574 36.1364C93.9801 36.1364 94.4309 36.0265 94.8097 35.8068C95.196 35.5795 95.4915 35.2614 95.696 34.8523C95.9081 34.4356 96.0104 33.9394 96.0028 33.3636ZM115.875 23.5455V28.0909H104.375V23.5455H115.875ZM106.602 19.3636H112.875V35.3864C112.875 35.6288 112.917 35.8333 113 36C113.083 36.1591 113.212 36.2803 113.386 36.3636C113.561 36.4394 113.784 36.4773 114.057 36.4773C114.246 36.4773 114.466 36.4545 114.716 36.4091C114.973 36.3636 115.163 36.3258 115.284 36.2955L116.193 40.7045C115.913 40.7879 115.511 40.8902 114.989 41.0114C114.473 41.1326 113.86 41.2121 113.148 41.25C111.708 41.3258 110.5 41.178 109.523 40.8068C108.545 40.428 107.811 39.8333 107.318 39.0227C106.826 38.2121 106.587 37.197 106.602 35.9773V19.3636Z" fill="white"/>
</svg>
