<svg width="56" height="56" viewBox="0 0 56 56" fill="none" xmlns="http://www.w3.org/2000/svg">
<path d="M22.75 0C10.2266 0 0 10.2266 0 22.75C0 35.2734 10.2266 45.5 22.75 45.5C27.7539 45.5 32.3887 43.8594 36.1484 41.0977L46.457 51.4062C49.8066 54.6875 54.7285 49.6562 51.3789 46.375L41.125 36.1211C43.873 32.3613 45.5 27.7402 45.5 22.75C45.5 10.2266 35.2734 0 22.75 0ZM22.75 7C31.4863 7 38.5 14.0137 38.5 22.75C38.5 31.4863 31.4863 38.5 22.75 38.5C14.0137 38.5 7 31.4863 7 22.75C7 14.0137 14.0137 7 22.75 7Z" fill="#222222"/>
<g clip-path="url(#clip0_9_71)">
<path d="M17.6953 9.75684C14.8174 9.75684 12.4453 12.1289 12.4453 15.0068V30.7568C12.4453 33.6348 14.8174 36.0068 17.6953 36.0068H28.1953C31.0732 36.0068 33.4453 33.6348 33.4453 30.7568V17.6318C33.4453 17.167 33.2607 16.7227 32.9326 16.3945L26.8076 10.2695C26.4795 9.94141 26.0352 9.75684 25.5703 9.75684H17.6953ZM17.6953 13.2568H24.6953V15.8818C24.6953 17.6318 25.5703 18.5068 27.3203 18.5068H29.9453V30.7568C29.9453 31.7549 29.1934 32.5068 28.1953 32.5068H17.6953C16.6973 32.5068 15.9453 31.7549 15.9453 30.7568V15.0068C15.9453 14.0088 16.6973 13.2568 17.6953 13.2568ZM20.3203 16.7568C18.8779 16.7568 17.6953 17.9395 17.6953 19.3818C17.6953 20.8242 18.8779 22.0068 20.3203 22.0068C21.7627 22.0068 22.9453 20.8242 22.9453 19.3818C22.9453 17.9395 21.7627 16.7568 20.3203 16.7568ZM20.3203 18.5068C20.8125 18.5068 21.1953 18.8896 21.1953 19.3818C21.1953 19.874 20.8125 20.2568 20.3203 20.2568C19.8281 20.2568 19.4453 19.874 19.4453 19.3818C19.4453 18.8896 19.8281 18.5068 20.3203 18.5068ZM24.668 21.9863V23.7363L28.1953 23.7568V22.0068L24.668 21.9863ZM17.6953 25.5068V27.2568H28.1953V25.5068H17.6953ZM17.6953 29.0068V30.7568H28.1953V29.0068H17.6953Z" fill="#222222"/>
</g>
<defs>
<clipPath id="clip0_9_71">
<rect width="28" height="28" fill="white" transform="translate(9 8)"/>
</clipPath>
</defs>
</svg>
