<svg width="1316" height="68" viewBox="0 0 1316 68" fill="none" xmlns="http://www.w3.org/2000/svg">
<rect width="1316" height="68" rx="25" fill="#77767B"/>
<path d="M371 34.0469C371 35.6992 372.348 37.0469 374 37.0469H399.758L392.879 43.9258C392.316 44.4883 392 45.25 392 46.0469C392 46.8438 392.316 47.6055 392.879 48.168C394.051 49.3398 395.949 49.3398 397.121 48.168L409.121 36.168C410.293 34.9961 410.293 33.0977 409.121 31.9258L397.121 19.9258C395.949 18.7539 394.051 18.7539 392.879 19.9258C391.707 21.0977 391.707 22.9961 392.879 24.168L399.758 31.0469H374C372.348 31.0469 371 32.3828 371 34.0469Z" fill="white"/>
<path d="M676 34.0469C676 35.6992 677.348 37.0469 679 37.0469H704.758L697.879 43.9258C697.316 44.4883 697 45.25 697 46.0469C697 46.8438 697.316 47.6055 697.879 48.168C699.051 49.3398 700.949 49.3398 702.121 48.168L714.121 36.168C715.293 34.9961 715.293 33.0977 714.121 31.9258L702.121 19.9258C700.949 18.7539 699.051 18.7539 697.879 19.9258C696.707 21.0977 696.707 22.9961 697.879 24.168L704.758 31.0469H679C677.348 31.0469 676 32.3828 676 34.0469Z" fill="white"/>
<path d="M17 42C18.5913 42 20.1174 41.3679 21.2426 40.2426C22.3679 39.1174 23 37.5913 23 36C23 34.4087 22.3679 32.8826 21.2426 31.7574C20.1174 30.6321 18.5913 30 17 30C15.4087 30 13.8826 30.6321 12.7574 31.7574C11.6321 32.8826 11 34.4087 11 36C11 37.5913 11.6321 39.1174 12.7574 40.2426C13.8826 41.3679 15.4087 42 17 42Z" fill="#33D17A"/>
<path d="M35.5859 11C31.9883 11 29 14 29 17.5977V52.4023C29 56 31.9883 59 35.5859 59H58.4141C62.0234 59 65 56 65 52.4023V17.5977C65 14 62.0234 11 58.4141 11L35.5859 11ZM35.5859 17H58.4141C58.7891 17 59 17.2109 59 17.5977V46.2266C59 46.625 58.7891 46.8359 58.4141 46.8359H35.5859C35.2227 46.8359 35 46.625 35 46.2266V17.5977C35 17.2109 35.2227 17 35.5859 17ZM47 49.5078C48.6523 49.5078 50 50.8555 50 52.5078C50 54.1602 48.6523 55.5078 47 55.5078C45.3477 55.5078 44 54.1602 44 52.5078C44 50.8555 45.3477 49.5078 47 49.5078Z" fill="#222222"/>
</svg>
