<svg width="256" height="256" viewBox="0 0 256 256" fill="none" xmlns="http://www.w3.org/2000/svg">
<path d="M128 16C66.3125 16 16 66.3125 16 128C16 189.688 66.3125 240 128 240C189.688 240 240 189.688 240 128C240 66.3125 189.688 16 128 16ZM128 48C172.062 48 208 83.9375 208 128C208 172.062 172.062 208 128 208C83.9375 208 48 172.062 48 128C48 83.9375 83.9375 48 128 48Z" fill="#E01B24"/>
<path d="M122.125 167.25C117.333 167.25 112.938 166.979 108.938 166.438C104.938 165.896 101.396 165.167 98.3125 164.25L99.875 148.062C102.583 148.771 105.604 149.521 108.938 150.312C112.312 151.104 116.542 151.5 121.625 151.5C127.125 151.5 131.375 150.542 134.375 148.625C137.417 146.708 138.938 144 138.938 140.5C138.938 136.667 136.917 133.708 132.875 131.625C128.833 129.542 123.125 128.5 115.75 128.5H113.75L112.25 114.125C121 113.042 127.312 111.188 131.188 108.562C135.104 105.938 137.062 102.75 137.062 99C137.062 94.125 133.958 91.6875 127.75 91.6875C124.417 91.6875 120.75 92.3542 116.75 93.6875C112.75 95.0208 108.958 97 105.375 99.625L96.75 86.875C100.75 83.0417 105.354 80.2708 110.562 78.5625C115.771 76.8542 121.583 76 128 76C136.458 76 142.979 77.7292 147.562 81.1875C152.146 84.6042 154.438 89.5 154.438 95.875C154.438 101.458 152.521 106.312 148.688 110.438C144.896 114.521 139.938 117.354 133.812 118.938V121C140.562 121.625 146 123.792 150.125 127.5C154.25 131.167 156.312 136.083 156.312 142.25C156.312 150.167 153.333 156.312 147.375 160.688C141.417 165.062 133 167.25 122.125 167.25Z" fill="#E01B24"/>
</svg>
