<svg width="1316" height="68" viewBox="0 0 1316 68" fill="none" xmlns="http://www.w3.org/2000/svg">
<rect width="1316" height="68" rx="25" fill="#9A9996"/>
<path d="M11 41C12.5913 41 14.1174 40.3679 15.2426 39.2426C16.3679 38.1174 17 36.5913 17 35C17 33.4087 16.3679 31.8826 15.2426 30.7574C14.1174 29.6321 12.5913 29 11 29C9.4087 29 7.88258 29.6321 6.75736 30.7574C5.63214 31.8826 5 33.4087 5 35C5 36.5913 5.63214 38.1174 6.75736 39.2426C7.88258 40.3679 9.4087 41 11 41Z" fill="#33D17A"/>
<g clip-path="url(#clip0_70_99)">
<path d="M48.457 19.9883C50.6367 20.0937 52.7578 20.9961 54.3633 22.6016C56.9297 25.168 57.7031 29.0586 56.3086 32.4102C55.3242 34.8008 53.3555 36.582 51 37.4258V40.9648H45V34.9648C45 33.3125 46.3477 31.9648 48 31.9648C49.2188 31.9648 50.3086 31.2383 50.7656 30.1133C51.2344 28.9883 50.9883 27.7109 50.1211 26.8437C49.2539 25.9766 47.9766 25.7305 46.8516 26.1992C45.7266 26.6562 45 27.7461 45 28.9648H39C39 25.332 41.2031 22.0391 44.5547 20.6562C45.8086 20.1289 47.1445 19.918 48.457 19.9883ZM48 43.9648C49.6523 43.9648 51 45.3125 51 46.9648C51 48.6172 49.6523 49.9648 48 49.9648C46.3477 49.9648 45 48.6172 45 46.9648C45 45.3125 46.3477 43.9648 48 43.9648Z" fill="#222222"/>
<path d="M64.9453 18.0898C55.5938 8.73828 40.4063 8.73828 31.0547 18.0898C21.7148 27.4297 21.7148 42.6289 31.0547 51.9688C40.4063 61.3086 55.5938 61.3086 64.9453 51.9688C74.2852 42.6289 74.2852 27.4297 64.9453 18.0898ZM60.1172 22.918C66.8672 29.668 66.8672 40.3906 60.1172 47.1406C53.3555 53.9023 42.6328 53.9023 35.8828 47.1406C29.1328 40.3906 29.1328 29.668 35.8828 22.9062C42.6328 16.1562 53.3555 16.1562 60.1172 22.9062V22.918Z" fill="#222222"/>
</g>
<defs>
<clipPath id="clip0_70_99">
<rect width="48" height="48" fill="white" transform="translate(24 11)"/>
</clipPath>
</defs>
</svg>
