<svg width="49" height="51" viewBox="0 0 49 51" fill="none" xmlns="http://www.w3.org/2000/svg">
<path d="M38.6426 15.1435C31.913 7.12345 22.3145 1.49031 11.5508 0.322991L8.79389 0.0253645C6.6091 -0.222004 4.64118 1.36809 4.39537 3.55297C4.15961 5.74982 5.75089 7.7191 7.93567 7.96647L10.6806 8.27413C27.6705 10.1325 41.6721 26.819 40.552 43.8734L40.3783 46.6301C40.2426 48.8247 41.9056 50.7337 44.11 50.883C46.3144 51.0323 48.2121 49.3585 48.3478 47.1639L48.5435 44.4091C49.253 33.5943 45.3722 23.1635 38.6426 15.1435ZM26.2896 25.3457C22.2159 20.5638 16.3184 17.3735 9.90982 17.121L6.94953 16.994C5.88941 16.9453 4.85888 17.3204 4.07562 18.0388C3.29236 18.7573 2.82814 19.7587 2.79016 20.8309C2.74213 21.8911 3.11796 22.9221 3.84882 23.6959C4.5677 24.4797 5.56938 24.9447 6.62949 24.9935L9.57974 25.1085C17.1704 25.4094 24.8701 34.0025 23.7822 42.0344L23.3932 44.9717C23.2471 46.0122 23.5311 47.0794 24.1782 47.9235C24.8134 48.7776 25.7634 49.3268 26.8259 49.4756C27.8783 49.6124 28.9452 49.3291 29.7887 48.6825C30.6203 48.0459 31.1806 47.0862 31.3167 46.0337L31.7057 43.0963C32.6029 36.4892 30.3532 30.1156 26.2896 25.3457ZM14.1212 35.7194C12.8054 34.1513 10.8915 33.085 8.69093 32.8917C4.28977 32.5051 0.414197 35.7571 0.0306961 40.1585C-0.3528 44.56 2.90151 48.4383 7.30267 48.8249C11.7038 49.2115 15.5794 45.9596 15.9629 41.5581C16.1547 39.3574 15.437 37.2875 14.1212 35.7194Z" fill="#2E3436"/>
</svg>
