<svg width="48" height="48" viewBox="0 0 48 48" fill="none" xmlns="http://www.w3.org/2000/svg">
<g clip-path="url(#clip0_12_101)">
<path d="M0 30C0 39.9023 8.09766 48 18 48C27.9023 48 36 39.9023 36 30V29.9883C35.9883 27.8906 35.168 25.957 34.4414 24H39C40.6523 24 42 22.6523 42 21V18H45C46.6523 18 48 16.6523 48 15V3C48 1.34766 46.6523 0 45 0H36C35.2031 0 34.4414 0.316407 33.8789 0.878907L22.0195 12.7266C20.6953 12.4102 19.3945 12.0117 18.0234 12C18.0117 12 18.0117 12 18 12C8.09766 12 0 20.0977 0 30ZM6 30C6 23.3438 11.332 18.0117 17.9883 18C19.3711 18.0117 20.7422 18.2578 22.0312 18.7383C23.1328 19.1484 24.3633 18.8672 25.1953 18.0469L37.2422 6H42V12H39C37.3477 12 36 13.3477 36 15V18H33C32.2031 18 31.4414 18.3164 30.8789 18.8789L29.0273 20.7305C28.0898 21.668 27.8789 23.1211 28.5117 24.293C29.4727 26.0391 29.9883 28.0078 30 30.0117C29.9883 36.668 24.6562 42 18 42C11.332 42 6 36.668 6 30Z" fill="#222222"/>
<path d="M15 36C13.3477 36 12 34.6523 12 33C12 31.3477 13.3477 30 15 30C16.6523 30 18 31.3477 18 33C18 34.6523 16.6523 36 15 36Z" fill="#222222"/>
</g>
<defs>
<clipPath id="clip0_12_101">
<rect width="48" height="48" fill="white"/>
</clipPath>
</defs>
</svg>
