<svg width="192" height="64" viewBox="0 0 192 64" fill="none" xmlns="http://www.w3.org/2000/svg">
<rect width="192" height="64" rx="32" fill="#3584E4"/>
<path d="M44.8295 17.9091L50.7955 38.4205H51.0227L56.9886 17.9091H65.9091L56.3068 47H45.5114L35.9091 17.9091H44.8295ZM68.8246 47V25.1818H76.6655V47H68.8246ZM72.745 22.9091C71.6844 22.9091 70.7753 22.5587 70.0178 21.858C69.2602 21.1572 68.8814 20.3144 68.8814 19.3295C68.8814 18.3447 69.2602 17.5019 70.0178 16.8011C70.7753 16.1004 71.6844 15.75 72.745 15.75C73.8151 15.75 74.7242 16.1004 75.4723 16.8011C76.2299 17.5019 76.6087 18.3447 76.6087 19.3295C76.6087 20.3144 76.2299 21.1572 75.4723 21.858C74.7242 22.5587 73.8151 22.9091 72.745 22.9091ZM91.1151 47.3977C88.7855 47.3977 86.7779 46.9527 85.0923 46.0625C83.4162 45.1629 82.1236 43.875 81.2145 42.1989C80.3149 40.5133 79.8651 38.4962 79.8651 36.1477C79.8651 33.8939 80.3196 31.9242 81.2287 30.2386C82.1378 28.553 83.4209 27.2415 85.0781 26.304C86.7353 25.3665 88.6908 24.8977 90.9446 24.8977C92.5923 24.8977 94.0838 25.1534 95.419 25.6648C96.7543 26.1761 97.8954 26.9195 98.8423 27.8949C99.7893 28.8608 100.518 30.035 101.03 31.4176C101.541 32.8002 101.797 34.358 101.797 36.0909V37.9091H82.3082V33.5909H94.581C94.5715 32.9659 94.4105 32.4167 94.098 31.9432C93.795 31.4602 93.383 31.0862 92.8622 30.821C92.3509 30.5464 91.7685 30.4091 91.1151 30.4091C90.4806 30.4091 89.8982 30.5464 89.3679 30.821C88.8376 31.0862 88.4115 31.4555 88.0895 31.929C87.777 32.4025 87.6113 32.9564 87.5923 33.5909V38.25C87.5923 38.9508 87.7391 39.5758 88.0327 40.125C88.3262 40.6742 88.7476 41.1051 89.2969 41.4176C89.8461 41.7301 90.509 41.8864 91.2855 41.8864C91.8253 41.8864 92.3177 41.8106 92.7628 41.6591C93.2173 41.5076 93.6056 41.2898 93.9276 41.0057C94.2495 40.7121 94.4863 40.3617 94.6378 39.9545H101.797C101.551 41.4697 100.968 42.786 100.05 43.9034C99.1312 45.0114 97.9143 45.8731 96.3991 46.4886C94.8935 47.0947 93.1321 47.3977 91.1151 47.3977ZM108.587 47L103.132 25.1818H110.973L113.473 38.4773H113.643L116.428 25.1818H124.041L126.939 38.3636H127.109L129.496 25.1818H137.337L131.882 47H123.416L120.348 35.2955H120.121L117.053 47H108.587Z" fill="white"/>
</svg>
