<svg width="256" height="256" viewBox="0 0 256 256" fill="none" xmlns="http://www.w3.org/2000/svg">
<path d="M128 16C66.3125 16 16 66.3125 16 128C16 189.688 66.3125 240 128 240C189.688 240 240 189.688 240 128C240 66.3125 189.688 16 128 16ZM128 48C172.062 48 208 83.9375 208 128C208 172.062 172.062 208 128 208C83.9375 208 48 172.062 48 128C48 83.9375 83.9375 48 128 48Z" fill="#26A269"/>
<path d="M60.5625 170V155.375H82.125V97.25L61.8125 104.5V88.75L82.125 81.25H98.625V155.375H117.812V170H60.5625ZM163.5 171.25C142.625 171.25 132.188 156.25 132.188 126.25C132.188 95.4167 142.625 80 163.5 80C184.375 80 194.812 95.4167 194.812 126.25C194.812 156.25 184.375 171.25 163.5 171.25ZM163.5 155.5C173 155.5 177.75 145.75 177.75 126.25C177.75 105.917 173 95.75 163.5 95.75C153.833 95.75 149 105.917 149 126.25C149 145.75 153.833 155.5 163.5 155.5ZM163.375 137.688C160.875 137.688 158.854 136.646 157.312 134.562C155.812 132.479 155.062 129.708 155.062 126.25C155.062 122.792 155.812 120.021 157.312 117.938C158.854 115.854 160.875 114.812 163.375 114.812C165.875 114.812 167.896 115.854 169.438 117.938C170.979 120.021 171.75 122.792 171.75 126.25C171.75 129.708 170.979 132.479 169.438 134.562C167.896 136.646 165.875 137.688 163.375 137.688Z" fill="#26A269"/>
</svg>
