<svg width="256" height="256" viewBox="0 0 256 256" fill="none" xmlns="http://www.w3.org/2000/svg">
<path d="M128 16C66.3125 16 16 66.3125 16 128C16 189.688 66.3125 240 128 240C189.688 240 240 189.688 240 128C240 66.3125 189.688 16 128 16ZM128 48C172.062 48 208 83.9375 208 128C208 172.062 172.062 208 128 208C83.9375 208 48 172.062 48 128C48 83.9375 83.9375 48 128 48Z" fill="#F5C211"/>
<path d="M93.5625 148.125L104.5 82.25H121.312L112.75 133.062H136.062V77.25H152.5V133.062H161.062V148.125H152.5V166H136.062V148.125H93.5625Z" fill="#F5C211"/>
</svg>
