<svg width="95" height="58" viewBox="0 0 95 58" fill="none" xmlns="http://www.w3.org/2000/svg">
<rect width="95" height="58" rx="29" fill="#3584E4"/>
<path d="M18.5455 41H11.7273L19.4091 17.7273H28.0455L35.7273 41H28.9091L23.8182 24.1364H23.6364L18.5455 41ZM17.2727 31.8182H30.0909V36.5455H17.2727V31.8182ZM43.0028 41.2273C41.7604 41.2273 40.6165 40.9015 39.571 40.25C38.5331 39.5985 37.6998 38.6098 37.071 37.2841C36.4498 35.9583 36.1392 34.2879 36.1392 32.2727C36.1392 30.1667 36.465 28.4545 37.1165 27.1364C37.7756 25.8182 38.6241 24.8523 39.6619 24.2386C40.7074 23.625 41.8059 23.3182 42.9574 23.3182C43.821 23.3182 44.5786 23.4697 45.2301 23.7727C45.8816 24.0682 46.4271 24.4659 46.8665 24.9659C47.3059 25.4583 47.6392 26 47.8665 26.5909H47.9574V17.7273H54.2301V41H48.0028V38.1364H47.8665C47.6241 38.7273 47.2756 39.2576 46.821 39.7273C46.3741 40.1894 45.8286 40.5568 45.1847 40.8295C44.5483 41.0947 43.821 41.2273 43.0028 41.2273ZM45.321 36.4091C45.8968 36.4091 46.3892 36.2424 46.7983 35.9091C47.215 35.5682 47.5331 35.0909 47.7528 34.4773C47.9801 33.8561 48.0938 33.1212 48.0938 32.2727C48.0938 31.4091 47.9801 30.6705 47.7528 30.0568C47.5331 29.4356 47.215 28.9621 46.7983 28.6364C46.3892 28.303 45.8968 28.1364 45.321 28.1364C44.7453 28.1364 44.2528 28.303 43.8438 28.6364C43.4422 28.9621 43.1316 29.4356 42.9119 30.0568C42.6998 30.6705 42.5938 31.4091 42.5938 32.2727C42.5938 33.1364 42.6998 33.8788 42.9119 34.5C43.1316 35.1136 43.4422 35.5871 43.8438 35.9205C44.2528 36.2462 44.7453 36.4091 45.321 36.4091ZM63.6278 41.2273C62.3854 41.2273 61.2415 40.9015 60.196 40.25C59.1581 39.5985 58.3248 38.6098 57.696 37.2841C57.0748 35.9583 56.7642 34.2879 56.7642 32.2727C56.7642 30.1667 57.09 28.4545 57.7415 27.1364C58.4006 25.8182 59.2491 24.8523 60.2869 24.2386C61.3324 23.625 62.4309 23.3182 63.5824 23.3182C64.446 23.3182 65.2036 23.4697 65.8551 23.7727C66.5066 24.0682 67.0521 24.4659 67.4915 24.9659C67.9309 25.4583 68.2642 26 68.4915 26.5909H68.5824V17.7273H74.8551V41H68.6278V38.1364H68.4915C68.2491 38.7273 67.9006 39.2576 67.446 39.7273C66.9991 40.1894 66.4536 40.5568 65.8097 40.8295C65.1733 41.0947 64.446 41.2273 63.6278 41.2273ZM65.946 36.4091C66.5218 36.4091 67.0142 36.2424 67.4233 35.9091C67.84 35.5682 68.1581 35.0909 68.3778 34.4773C68.6051 33.8561 68.7188 33.1212 68.7188 32.2727C68.7188 31.4091 68.6051 30.6705 68.3778 30.0568C68.1581 29.4356 67.84 28.9621 67.4233 28.6364C67.0142 28.303 66.5218 28.1364 65.946 28.1364C65.3703 28.1364 64.8778 28.303 64.4688 28.6364C64.0672 28.9621 63.7566 29.4356 63.5369 30.0568C63.3248 30.6705 63.2188 31.4091 63.2188 32.2727C63.2188 33.1364 63.3248 33.8788 63.5369 34.5C63.7566 35.1136 64.0672 35.5871 64.4688 35.9205C64.8778 36.2462 65.3703 36.4091 65.946 36.4091Z" fill="white"/>
</svg>
