<?xml version="1.0" standalone="no"?>
<!DOCTYPE svg PUBLIC "-//W3C//DTD SVG 20010904//EN"
 "http://www.w3.org/TR/2001/REC-SVG-20010904/DTD/svg10.dtd">
<svg version="1.0" xmlns="http://www.w3.org/2000/svg"
 width="1316.000000pt" height="68.000000pt" viewBox="0 0 1316.000000 68.000000"
 preserveAspectRatio="xMidYMid meet">
<metadata>
Created by potrace 1.16, written by Peter Selinger 2001-2019
</metadata>
<g transform="translate(0.000000,68.000000) scale(0.100000,-0.100000)"
fill="#000000" stroke="none">
<path d="M0 340 l0 -340 6580 0 6580 0 0 340 0 340 -6580 0 -6580 0 0 -340z
m4026 89 c35 -34 66 -71 70 -82 5 -15 -9 -35 -62 -88 -38 -38 -76 -69 -86 -69
-10 0 -18 2 -18 4 0 2 -3 11 -6 19 -3 9 9 32 31 56 l37 41 -135 0 c-115 0
-136 2 -141 16 -14 37 11 44 146 44 l130 0 -36 40 c-39 44 -42 50 -24 68 19
19 26 15 94 -49z m3050 0 c35 -34 66 -71 70 -82 5 -15 -9 -35 -62 -88 -38 -38
-76 -69 -86 -69 -10 0 -18 2 -18 4 0 2 -3 11 -6 19 -3 9 9 32 31 56 l37 41
-135 0 c-115 0 -136 2 -141 16 -14 37 11 44 146 44 l130 0 -36 40 c-39 44 -42
50 -24 68 19 19 26 15 94 -49z m-6871 -74 c14 -13 25 -29 25 -35 0 -6 -11 -22
-25 -35 -13 -14 -29 -25 -35 -25 -14 0 -60 46 -60 60 0 6 11 22 25 35 13 14
29 25 35 25 6 0 22 -11 35 -25z"/>
</g>
</svg>
