<svg width="64" height="64" viewBox="0 0 64 64" fill="none" xmlns="http://www.w3.org/2000/svg">
<circle cx="32" cy="32" r="32" fill="#3584E4"/>
<path fill-rule="evenodd" clip-rule="evenodd" d="M25.9531 22C25.168 22.0117 24.4062 22.3398 23.8438 22.9023L15.0898 31.9023C13.9648 33.0742 13.9648 34.9258 15.0898 36.0977L23.8438 45.0977C25.0039 46.2812 26.9023 46.3047 28.0859 45.1562C29.2812 43.9961 29.3047 42.0977 28.1445 40.9023L24.3477 37H47C48.6523 37 50 35.6523 50 34C50 32.3477 48.6523 31 47 31H24.3477L28.1445 27.0977C29.3047 25.9023 29.2812 24.0039 28.0859 22.8437C27.5234 22.293 26.75 21.9883 25.9531 22Z" fill="white"/>
</svg>
