<svg width="356" height="128" viewBox="0 0 356 128" fill="none" xmlns="http://www.w3.org/2000/svg">
<rect width="356" height="128" rx="64" fill="#3584E4"/>
<path d="M38.1307 59.6364H30.9205C30.8693 59.0398 30.733 58.4986 30.5114 58.0128C30.2983 57.527 30 57.1094 29.6165 56.7599C29.2415 56.402 28.7855 56.1293 28.2486 55.9418C27.7116 55.7457 27.1023 55.6477 26.4205 55.6477C25.2273 55.6477 24.2173 55.9375 23.3906 56.517C22.5724 57.0966 21.9503 57.9276 21.5241 59.0099C21.1065 60.0923 20.8977 61.392 20.8977 62.9091C20.8977 64.5114 21.1108 65.8537 21.5369 66.9361C21.9716 68.0099 22.598 68.8196 23.4162 69.3651C24.2344 69.902 25.2188 70.1705 26.3693 70.1705C27.0256 70.1705 27.6136 70.0895 28.1335 69.9276C28.6534 69.7571 29.1051 69.5142 29.4886 69.1989C29.8722 68.8835 30.1832 68.5043 30.4219 68.0611C30.669 67.6094 30.8352 67.1023 30.9205 66.5398L38.1307 66.5909C38.0455 67.6989 37.7344 68.8281 37.1974 69.9787C36.6605 71.1207 35.8977 72.1776 34.9091 73.1491C33.929 74.1122 32.7145 74.8878 31.2656 75.4759C29.8168 76.0639 28.1335 76.358 26.2159 76.358C23.8125 76.358 21.6562 75.8423 19.7472 74.8111C17.8466 73.7798 16.3423 72.2628 15.2344 70.2599C14.1349 68.2571 13.5852 65.8068 13.5852 62.9091C13.5852 59.9943 14.1477 57.5398 15.2727 55.5455C16.3977 53.5426 17.9148 52.0298 19.8239 51.0071C21.733 49.9759 23.8636 49.4602 26.2159 49.4602C27.8693 49.4602 29.3906 49.6861 30.7798 50.1378C32.169 50.5895 33.3878 51.25 34.4361 52.1193C35.4844 52.9801 36.3281 54.0412 36.9673 55.3026C37.6065 56.5639 37.9943 58.0085 38.1307 59.6364ZM41.4577 76V56.3636H48.31V60.0966H48.5146C48.8725 58.7159 49.4393 57.706 50.2148 57.0668C50.9989 56.4276 51.9151 56.108 52.9634 56.108C53.2702 56.108 53.5728 56.1335 53.8711 56.1847C54.1779 56.2273 54.4719 56.2912 54.7532 56.3764V62.3977C54.4038 62.2784 53.9734 62.1889 53.462 62.1293C52.9506 62.0696 52.5117 62.0398 52.1452 62.0398C51.4549 62.0398 50.8327 62.1974 50.2788 62.5128C49.7333 62.8196 49.3029 63.2543 48.9876 63.8168C48.6722 64.3707 48.5146 65.0227 48.5146 65.7727V76H41.4577ZM65.3512 76.358C63.2546 76.358 61.4478 75.9574 59.9308 75.1562C58.4222 74.3466 57.2589 73.1875 56.4407 71.679C55.631 70.1619 55.2262 68.3466 55.2262 66.233C55.2262 64.2045 55.6353 62.4318 56.4535 60.9148C57.2717 59.3977 58.4265 58.2173 59.918 57.3736C61.4094 56.5298 63.1694 56.108 65.1978 56.108C66.6808 56.108 68.0231 56.3381 69.2248 56.7983C70.4265 57.2585 71.4535 57.9276 72.3058 58.8054C73.158 59.6747 73.8143 60.7315 74.2745 61.9759C74.7347 63.2202 74.9648 64.6222 74.9648 66.1818V67.8182H57.4251V63.9318H68.4705C68.462 63.3693 68.3171 62.875 68.0359 62.4489C67.7631 62.0142 67.3924 61.6776 66.9237 61.4389C66.4634 61.1918 65.9393 61.0682 65.3512 61.0682C64.7802 61.0682 64.256 61.1918 63.7788 61.4389C63.3015 61.6776 62.918 62.0099 62.6282 62.4361C62.3469 62.8622 62.1978 63.3608 62.1808 63.9318V68.125C62.1808 68.7557 62.3129 69.3182 62.5771 69.8125C62.8413 70.3068 63.2205 70.6946 63.7148 70.9759C64.2092 71.2571 64.8058 71.3977 65.5046 71.3977C65.9904 71.3977 66.4336 71.3295 66.8342 71.1932C67.2433 71.0568 67.5927 70.8608 67.8825 70.6051C68.1722 70.3409 68.3853 70.0256 68.5217 69.6591H74.9648C74.7433 71.0227 74.2191 72.2074 73.3924 73.2131C72.5657 74.2102 71.4705 74.9858 70.1069 75.5398C68.7518 76.0852 67.1665 76.358 65.3512 76.358ZM83.3161 76.3068C82.0632 76.3068 80.9553 76.1023 79.9922 75.6932C79.0376 75.2756 78.2876 74.6449 77.7422 73.8011C77.1967 72.9574 76.924 71.8835 76.924 70.5795C76.924 69.5057 77.1072 68.5895 77.4737 67.831C77.8402 67.0639 78.3516 66.4375 79.0078 65.9517C79.6641 65.4659 80.4268 65.0952 81.2962 64.8395C82.174 64.5838 83.12 64.4176 84.1342 64.3409C85.2337 64.2557 86.1158 64.1534 86.7805 64.0341C87.4538 63.9062 87.9396 63.7315 88.2379 63.5099C88.5362 63.2798 88.6854 62.9773 88.6854 62.6023V62.5511C88.6854 62.0398 88.4893 61.6477 88.0973 61.375C87.7053 61.1023 87.2024 60.9659 86.5888 60.9659C85.9155 60.9659 85.3658 61.1151 84.9396 61.4134C84.522 61.7031 84.2706 62.1506 84.1854 62.7557H77.6911C77.7763 61.5625 78.1555 60.4631 78.8288 59.4574C79.5107 58.4432 80.5036 57.6335 81.8075 57.0284C83.1115 56.4148 84.7393 56.108 86.6911 56.108C88.0973 56.108 89.3587 56.2741 90.4751 56.6065C91.5916 56.9304 92.5419 57.3864 93.326 57.9744C94.1101 58.554 94.7067 59.2358 95.1158 60.0199C95.5334 60.7955 95.7422 61.6392 95.7422 62.5511V76H89.1456V73.2386H88.9922C88.6001 73.9716 88.1229 74.5639 87.5604 75.0156C87.0064 75.4673 86.3714 75.7955 85.6555 76C84.9482 76.2045 84.1683 76.3068 83.3161 76.3068ZM85.6172 71.858C86.1541 71.858 86.657 71.7472 87.1257 71.5256C87.603 71.304 87.9908 70.9844 88.2891 70.5668C88.5874 70.1491 88.7365 69.642 88.7365 69.0455V67.4091C88.549 67.4858 88.3487 67.5582 88.1357 67.6264C87.9311 67.6946 87.7095 67.7585 87.4709 67.8182C87.2408 67.8778 86.9936 67.9332 86.7294 67.9844C86.4737 68.0355 86.2053 68.0824 85.924 68.125C85.3786 68.2102 84.9311 68.3509 84.5817 68.5469C84.2408 68.7344 83.9851 68.9688 83.8146 69.25C83.6527 69.5227 83.5717 69.8295 83.5717 70.1705C83.5717 70.7159 83.7635 71.1335 84.147 71.4233C84.5305 71.7131 85.0206 71.858 85.6172 71.858ZM110.824 56.3636V61.4773H97.8867V56.3636H110.824ZM100.392 51.6591H107.449V69.6847C107.449 69.9574 107.496 70.1875 107.59 70.375C107.684 70.554 107.828 70.6903 108.025 70.7841C108.221 70.8693 108.472 70.9119 108.779 70.9119C108.992 70.9119 109.239 70.8864 109.52 70.8352C109.81 70.7841 110.023 70.7415 110.159 70.7074L111.182 75.6676C110.867 75.7614 110.415 75.8764 109.827 76.0128C109.248 76.1491 108.557 76.2386 107.756 76.2812C106.137 76.3665 104.777 76.2003 103.678 75.7827C102.578 75.3565 101.752 74.6875 101.198 73.7756C100.644 72.8636 100.375 71.7216 100.392 70.3494V51.6591ZM122.902 76.358C120.805 76.358 118.999 75.9574 117.482 75.1562C115.973 74.3466 114.81 73.1875 113.991 71.679C113.182 70.1619 112.777 68.3466 112.777 66.233C112.777 64.2045 113.186 62.4318 114.004 60.9148C114.822 59.3977 115.977 58.2173 117.469 57.3736C118.96 56.5298 120.72 56.108 122.749 56.108C124.232 56.108 125.574 56.3381 126.776 56.7983C127.977 57.2585 129.004 57.9276 129.857 58.8054C130.709 59.6747 131.365 60.7315 131.825 61.9759C132.286 63.2202 132.516 64.6222 132.516 66.1818V67.8182H114.976V63.9318H126.021C126.013 63.3693 125.868 62.875 125.587 62.4489C125.314 62.0142 124.943 61.6776 124.474 61.4389C124.014 61.1918 123.49 61.0682 122.902 61.0682C122.331 61.0682 121.807 61.1918 121.33 61.4389C120.852 61.6776 120.469 62.0099 120.179 62.4361C119.898 62.8622 119.749 63.3608 119.732 63.9318V68.125C119.732 68.7557 119.864 69.3182 120.128 69.8125C120.392 70.3068 120.771 70.6946 121.266 70.9759C121.76 71.2571 122.357 71.3977 123.055 71.3977C123.541 71.3977 123.984 71.3295 124.385 71.1932C124.794 71.0568 125.143 70.8608 125.433 70.6051C125.723 70.3409 125.936 70.0256 126.072 69.6591H132.516C132.294 71.0227 131.77 72.2074 130.943 73.2131C130.116 74.2102 129.021 74.9858 127.658 75.5398C126.303 76.0852 124.717 76.358 122.902 76.358ZM165.118 49.8182V76H159.186L149.726 62.2443H149.573V76H142.465V49.8182H148.499L157.806 63.5227H158.01V49.8182H165.118ZM177.992 76.358C175.895 76.358 174.088 75.9574 172.571 75.1562C171.063 74.3466 169.9 73.1875 169.081 71.679C168.272 70.1619 167.867 68.3466 167.867 66.233C167.867 64.2045 168.276 62.4318 169.094 60.9148C169.912 59.3977 171.067 58.2173 172.559 57.3736C174.05 56.5298 175.81 56.108 177.838 56.108C179.321 56.108 180.664 56.3381 181.865 56.7983C183.067 57.2585 184.094 57.9276 184.946 58.8054C185.799 59.6747 186.455 60.7315 186.915 61.9759C187.375 63.2202 187.605 64.6222 187.605 66.1818V67.8182H170.066V63.9318H181.111C181.103 63.3693 180.958 62.875 180.676 62.4489C180.404 62.0142 180.033 61.6776 179.564 61.4389C179.104 61.1918 178.58 61.0682 177.992 61.0682C177.421 61.0682 176.897 61.1918 176.419 61.4389C175.942 61.6776 175.559 62.0099 175.269 62.4361C174.988 62.8622 174.838 63.3608 174.821 63.9318V68.125C174.821 68.7557 174.953 69.3182 175.218 69.8125C175.482 70.3068 175.861 70.6946 176.355 70.9759C176.85 71.2571 177.446 71.3977 178.145 71.3977C178.631 71.3977 179.074 71.3295 179.475 71.1932C179.884 71.0568 180.233 70.8608 180.523 70.6051C180.813 70.3409 181.026 70.0256 181.162 69.6591H187.605C187.384 71.0227 186.86 72.2074 186.033 73.2131C185.206 74.2102 184.111 74.9858 182.748 75.5398C181.392 76.0852 179.807 76.358 177.992 76.358ZM193.716 76L188.807 56.3636H195.864L198.114 68.3295H198.267L200.773 56.3636H207.625L210.233 68.2273H210.387L212.534 56.3636H219.591L214.682 76H207.063L204.301 65.4659H204.097L201.336 76H193.716ZM228.809 76V49.8182H240.11C242.053 49.8182 243.753 50.2017 245.211 50.9688C246.668 51.7358 247.801 52.8139 248.611 54.2031C249.421 55.5923 249.826 57.2159 249.826 59.0739C249.826 60.9489 249.408 62.5724 248.573 63.9446C247.746 65.3168 246.583 66.3736 245.083 67.1151C243.591 67.8565 241.848 68.2273 239.854 68.2273H233.104V62.7045H238.422C239.257 62.7045 239.969 62.5597 240.557 62.2699C241.154 61.9716 241.61 61.5497 241.925 61.0043C242.249 60.4588 242.411 59.8153 242.411 59.0739C242.411 58.3239 242.249 57.6847 241.925 57.1562C241.61 56.6193 241.154 56.2102 240.557 55.929C239.969 55.6392 239.257 55.4943 238.422 55.4943H235.917V76H228.809ZM252.536 76V56.3636H259.388V60.0966H259.593C259.951 58.7159 260.517 57.706 261.293 57.0668C262.077 56.4276 262.993 56.108 264.042 56.108C264.348 56.108 264.651 56.1335 264.949 56.1847C265.256 56.2273 265.55 56.2912 265.831 56.3764V62.3977C265.482 62.2784 265.051 62.1889 264.54 62.1293C264.029 62.0696 263.59 62.0398 263.223 62.0398C262.533 62.0398 261.911 62.1974 261.357 62.5128C260.811 62.8196 260.381 63.2543 260.066 63.8168C259.75 64.3707 259.593 65.0227 259.593 65.7727V76H252.536ZM276.48 76.358C274.35 76.358 272.526 75.9361 271.009 75.0923C269.492 74.2401 268.328 73.0554 267.519 71.5384C266.709 70.0128 266.304 68.2443 266.304 66.233C266.304 64.2216 266.709 62.4574 267.519 60.9403C268.328 59.4148 269.492 58.2301 271.009 57.3864C272.526 56.5341 274.35 56.108 276.48 56.108C278.611 56.108 280.435 56.5341 281.952 57.3864C283.469 58.2301 284.632 59.4148 285.442 60.9403C286.252 62.4574 286.657 64.2216 286.657 66.233C286.657 68.2443 286.252 70.0128 285.442 71.5384C284.632 73.0554 283.469 74.2401 281.952 75.0923C280.435 75.9361 278.611 76.358 276.48 76.358ZM276.532 71.142C277.128 71.142 277.644 70.9418 278.078 70.5412C278.513 70.1406 278.85 69.5696 279.088 68.8281C279.327 68.0866 279.446 67.2045 279.446 66.1818C279.446 65.1506 279.327 64.2685 279.088 63.5355C278.85 62.794 278.513 62.223 278.078 61.8224C277.644 61.4219 277.128 61.2216 276.532 61.2216C275.901 61.2216 275.36 61.4219 274.908 61.8224C274.456 62.223 274.111 62.794 273.873 63.5355C273.634 64.2685 273.515 65.1506 273.515 66.1818C273.515 67.2045 273.634 68.0866 273.873 68.8281C274.111 69.5696 274.456 70.1406 274.908 70.5412C275.36 70.9418 275.901 71.142 276.532 71.142ZM301.282 56.3636V61.4773H288.14V56.3636H301.282ZM290.645 76V55.8011C290.645 54.1818 290.935 52.8395 291.515 51.7741C292.094 50.7088 292.912 49.9119 293.969 49.3835C295.026 48.8551 296.27 48.5909 297.702 48.5909C298.597 48.5909 299.466 48.6591 300.31 48.7955C301.162 48.9318 301.793 49.0511 302.202 49.1534L301.179 54.2159C300.924 54.1392 300.625 54.0795 300.284 54.0369C299.944 53.9858 299.645 53.9602 299.39 53.9602C298.725 53.9602 298.277 54.1009 298.047 54.3821C297.817 54.6634 297.702 55.0341 297.702 55.4943V76H290.645ZM304.005 76V56.3636H311.061V76H304.005ZM307.533 54.3182C306.578 54.3182 305.76 54.0028 305.078 53.3722C304.397 52.7415 304.056 51.983 304.056 51.0966C304.056 50.2102 304.397 49.4517 305.078 48.821C305.76 48.1903 306.578 47.875 307.533 47.875C308.496 47.875 309.314 48.1903 309.988 48.821C310.669 49.4517 311.01 50.2102 311.01 51.0966C311.01 51.983 310.669 52.7415 309.988 53.3722C309.314 54.0028 308.496 54.3182 307.533 54.3182ZM321.714 49.8182V76H314.657V49.8182H321.714ZM334.718 76.358C332.622 76.358 330.815 75.9574 329.298 75.1562C327.789 74.3466 326.626 73.1875 325.808 71.679C324.998 70.1619 324.593 68.3466 324.593 66.233C324.593 64.2045 325.002 62.4318 325.821 60.9148C326.639 59.3977 327.794 58.2173 329.285 57.3736C330.777 56.5298 332.537 56.108 334.565 56.108C336.048 56.108 337.39 56.3381 338.592 56.7983C339.794 57.2585 340.821 57.9276 341.673 58.8054C342.525 59.6747 343.181 60.7315 343.642 61.9759C344.102 63.2202 344.332 64.6222 344.332 66.1818V67.8182H326.792V63.9318H337.838C337.829 63.3693 337.684 62.875 337.403 62.4489C337.13 62.0142 336.76 61.6776 336.291 61.4389C335.831 61.1918 335.306 61.0682 334.718 61.0682C334.147 61.0682 333.623 61.1918 333.146 61.4389C332.669 61.6776 332.285 62.0099 331.995 62.4361C331.714 62.8622 331.565 63.3608 331.548 63.9318V68.125C331.548 68.7557 331.68 69.3182 331.944 69.8125C332.208 70.3068 332.588 70.6946 333.082 70.9759C333.576 71.2571 334.173 71.3977 334.872 71.3977C335.358 71.3977 335.801 71.3295 336.201 71.1932C336.61 71.0568 336.96 70.8608 337.25 70.6051C337.539 70.3409 337.752 70.0256 337.889 69.6591H344.332C344.11 71.0227 343.586 72.2074 342.76 73.2131C341.933 74.2102 340.838 74.9858 339.474 75.5398C338.119 76.0852 336.534 76.358 334.718 76.358Z" fill="white"/>
</svg>
