<svg width="81" height="50" viewBox="0 0 81 50" fill="none" xmlns="http://www.w3.org/2000/svg">
<rect width="81" height="50" rx="25" fill="#3584E4"/>
<path d="M24.5753 21.3835C24.483 21.0071 24.3374 20.6768 24.1385 20.3928C23.9396 20.1016 23.6911 19.8565 23.3928 19.6577C23.1016 19.4517 22.7607 19.299 22.37 19.1996C21.9865 19.093 21.5639 19.0398 21.1023 19.0398C20.108 19.0398 19.2592 19.2777 18.5561 19.7536C17.8601 20.2294 17.3274 20.9148 16.9581 21.8097C16.5959 22.7045 16.4148 23.7841 16.4148 25.0483C16.4148 26.3267 16.5888 27.4205 16.9368 28.3295C17.2848 29.2386 17.8033 29.9347 18.4922 30.4176C19.1811 30.9006 20.0369 31.142 21.0597 31.142C21.9616 31.142 22.7109 31.0107 23.3075 30.7479C23.9112 30.4851 24.3622 30.1122 24.6605 29.6293C24.9588 29.1463 25.108 28.5781 25.108 27.9247L26.1307 28.0312H21.1449V23.8125H30.8182V26.8381C30.8182 28.8267 30.3956 30.5277 29.5504 31.9411C28.7124 33.3473 27.5547 34.4268 26.0774 35.1797C24.6072 35.9254 22.9205 36.2983 21.017 36.2983C18.8935 36.2983 17.0291 35.8473 15.424 34.9453C13.8189 34.0433 12.5653 32.7578 11.6634 31.0888C10.7685 29.4197 10.321 27.4347 10.321 25.1335C10.321 23.3295 10.5945 21.7315 11.1413 20.3395C11.6953 18.9474 12.4624 17.772 13.4425 16.8132C14.4226 15.8473 15.5554 15.1193 16.8409 14.6293C18.1264 14.1321 19.5043 13.8835 20.9744 13.8835C22.267 13.8835 23.4673 14.0682 24.5753 14.4375C25.6903 14.7997 26.674 15.3182 27.5263 15.9929C28.3857 16.6605 29.0781 17.4524 29.6037 18.3686C30.1293 19.2848 30.4489 20.2898 30.5625 21.3835H24.5753ZM41.5488 36.2983C39.7733 36.2983 38.2534 35.9467 36.9892 35.2436C35.725 34.5334 34.7555 33.5462 34.0808 32.282C33.4061 31.0107 33.0687 29.5369 33.0687 27.8608C33.0687 26.1847 33.4061 24.7145 34.0808 23.4503C34.7555 22.179 35.725 21.1918 36.9892 20.4886C38.2534 19.7784 39.7733 19.4233 41.5488 19.4233C43.3244 19.4233 44.8443 19.7784 46.1085 20.4886C47.3727 21.1918 48.3422 22.179 49.0169 23.4503C49.6916 24.7145 50.0289 26.1847 50.0289 27.8608C50.0289 29.5369 49.6916 31.0107 49.0169 32.282C48.3422 33.5462 47.3727 34.5334 46.1085 35.2436C44.8443 35.9467 43.3244 36.2983 41.5488 36.2983ZM41.5914 31.9517C42.0886 31.9517 42.5183 31.7848 42.8805 31.451C43.2427 31.1172 43.5233 30.6413 43.7221 30.0234C43.921 29.4055 44.0204 28.6705 44.0204 27.8182C44.0204 26.9588 43.921 26.2237 43.7221 25.6129C43.5233 24.995 43.2427 24.5192 42.8805 24.1854C42.5183 23.8516 42.0886 23.6847 41.5914 23.6847C41.0659 23.6847 40.6149 23.8516 40.2385 24.1854C39.862 24.5192 39.5744 24.995 39.3755 25.6129C39.1767 26.2237 39.0772 26.9588 39.0772 27.8182C39.0772 28.6705 39.1767 29.4055 39.3755 30.0234C39.5744 30.6413 39.862 31.1172 40.2385 31.451C40.6149 31.7848 41.0659 31.9517 41.5914 31.9517ZM59.2335 14.1818L58.6795 29.1818H53.8216L53.2676 14.1818H59.2335ZM56.2505 36.3409C55.4267 36.3409 54.72 36.0533 54.1305 35.478C53.5481 34.8956 53.2605 34.1889 53.2676 33.358C53.2605 32.5483 53.5481 31.8558 54.1305 31.2805C54.72 30.7053 55.4267 30.4176 56.2505 30.4176C57.0318 30.4176 57.7207 30.7053 58.3173 31.2805C58.921 31.8558 59.2264 32.5483 59.2335 33.358C59.2264 33.9119 59.0808 34.4162 58.7967 34.8707C58.5197 35.3182 58.1575 35.6768 57.71 35.9467C57.2626 36.2095 56.7761 36.3409 56.2505 36.3409Z" fill="white"/>
</svg>
