<svg width="256" height="256" viewBox="0 0 256 256" fill="none" xmlns="http://www.w3.org/2000/svg">
<path d="M128 16C66.3125 16 16 66.3125 16 128C16 189.688 66.3125 240 128 240C189.688 240 240 189.688 240 128C240 66.3125 189.688 16 128 16ZM128 48C172.062 48 208 83.9375 208 128C208 172.062 172.062 208 128 208C83.9375 208 48 172.062 48 128C48 83.9375 83.9375 48 128 48Z" fill="#F5C211"/>
<path d="M126.125 168.25C116.333 168.25 108.688 165.458 103.188 159.875C97.6875 154.292 94.9375 146.542 94.9375 136.625V130.688C94.9375 113.854 99.4167 101.062 108.375 92.3125C117.333 83.5625 130.979 78.75 149.312 77.875L150.562 93.625C125.229 94.6667 112.542 105.208 112.5 125.25H114.125C115.25 120.625 117.479 117.062 120.812 114.562C124.188 112.021 128.312 110.75 133.188 110.75C140.938 110.75 146.917 113.208 151.125 118.125C155.333 123.042 157.438 130 157.438 139C157.438 148.25 154.708 155.438 149.25 160.562C143.833 165.688 136.125 168.25 126.125 168.25ZM126.25 152.5C130.625 152.5 134 151.333 136.375 149C138.792 146.625 140 143.292 140 139C140 134.958 138.833 131.854 136.5 129.688C134.167 127.521 130.833 126.438 126.5 126.438C122 126.438 118.521 127.604 116.062 129.938C113.604 132.271 112.375 135.562 112.375 139.812C112.375 143.812 113.583 146.938 116 149.188C118.458 151.396 121.875 152.5 126.25 152.5Z" fill="#F5C211"/>
</svg>
