<svg width="256" height="256" viewBox="0 0 256 256" fill="none" xmlns="http://www.w3.org/2000/svg">
<path d="M128 16C66.3125 16 16 66.3125 16 128C16 189.688 66.3125 240 128 240C189.688 240 240 189.688 240 128C240 66.3125 189.688 16 128 16ZM128 48C172.062 48 208 83.9375 208 128C208 172.062 172.062 208 128 208C83.9375 208 48 172.062 48 128C48 83.9375 83.9375 48 128 48Z" fill="#26A269"/>
<path d="M125.5 168.25C115.542 168.25 107.833 166.021 102.375 161.562C96.9167 157.062 94.1875 150.75 94.1875 142.625C94.1875 136.583 95.9792 131.646 99.5625 127.812C103.188 123.979 108.375 121.417 115.125 120.125V119.375C109.208 118.167 104.646 115.875 101.438 112.5C98.2708 109.083 96.6875 104.75 96.6875 99.5C96.6875 92.375 99.1875 86.8542 104.188 82.9375C109.229 78.9792 116.333 77 125.5 77C134.667 77 141.75 78.9792 146.75 82.9375C151.792 86.8542 154.312 92.375 154.312 99.5C154.312 104.75 152.729 109.083 149.562 112.5C146.396 115.875 141.875 118.167 136 119.375V120.188C142.708 121.479 147.854 124.042 151.438 127.875C155.021 131.708 156.812 136.625 156.812 142.625C156.812 150.75 154.083 157.062 148.625 161.562C143.167 166.021 135.458 168.25 125.5 168.25ZM125.5 152.5C129.958 152.5 133.396 151.438 135.812 149.312C138.229 147.146 139.438 144.104 139.438 140.188C139.438 136.312 138.229 133.312 135.812 131.188C133.396 129.021 129.958 127.938 125.5 127.938C121.083 127.938 117.646 129.021 115.188 131.188C112.771 133.312 111.562 136.312 111.562 140.188C111.562 144.104 112.771 147.146 115.188 149.312C117.646 151.438 121.083 152.5 125.5 152.5ZM125.5 112.312C129.125 112.312 131.938 111.479 133.938 109.812C135.938 108.146 136.938 105.792 136.938 102.75C136.938 99.5417 135.938 97.0625 133.938 95.3125C131.938 93.5625 129.125 92.6875 125.5 92.6875C121.875 92.6875 119.062 93.5625 117.062 95.3125C115.062 97.0625 114.062 99.5417 114.062 102.75C114.062 105.792 115.062 108.146 117.062 109.812C119.062 111.479 121.875 112.312 125.5 112.312Z" fill="#26A269"/>
</svg>
