<svg width="256" height="256" viewBox="0 0 256 256" fill="none" xmlns="http://www.w3.org/2000/svg">
<path d="M128 16C66.3125 16 16 66.3125 16 128C16 189.688 66.3125 240 128 240C189.688 240 240 189.688 240 128C240 66.3125 189.688 16 128 16ZM128 48C172.062 48 208 83.9375 208 128C208 172.062 172.062 208 128 208C83.9375 208 48 172.062 48 128C48 83.9375 83.9375 48 128 48Z" fill="#F5C211"/>
<path d="M125.312 168.25C115.729 168.25 108.312 165.792 103.062 160.875C97.8125 155.917 95.1875 148.979 95.1875 140.062H112.562C112.562 143.979 113.729 147.042 116.062 149.25C118.396 151.417 121.708 152.5 126 152.5C130.292 152.5 133.708 151.167 136.25 148.5C138.792 145.833 140.062 142.292 140.062 137.875C140.062 133.875 138.792 130.708 136.25 128.375C133.75 126 130.354 124.812 126.062 124.812C120.979 124.812 116.208 126 111.75 128.375H100.562L101.812 78.25H151.812V93.4375H117.562L116.5 112.062C118.667 111.104 121.062 110.375 123.688 109.875C126.354 109.375 128.938 109.125 131.438 109.125C139.354 109.125 145.667 111.729 150.375 116.938C155.083 122.146 157.438 129.125 157.438 137.875C157.438 144 156.104 149.354 153.438 153.938C150.812 158.479 147.083 162 142.25 164.5C137.458 167 131.812 168.25 125.312 168.25Z" fill="#F5C211"/>
</svg>
