<svg width="256" height="256" viewBox="0 0 256 256" fill="none" xmlns="http://www.w3.org/2000/svg">
<path d="M128 16C66.3125 16 16 66.3125 16 128C16 189.688 66.3125 240 128 240C189.688 240 240 189.688 240 128C240 66.3125 189.688 16 128 16ZM128 48C172.062 48 208 83.9375 208 128C208 172.062 172.062 208 128 208C83.9375 208 48 172.062 48 128C48 83.9375 83.9375 48 128 48Z" fill="#26A269"/>
<path d="M118.438 135.375C110.688 135.375 104.708 132.917 100.5 128C96.2917 123.083 94.1875 116.125 94.1875 107.125C94.1875 97.875 96.8958 90.6875 102.312 85.5625C107.771 80.4375 115.5 77.875 125.5 77.875C135.333 77.875 142.979 80.6667 148.438 86.25C153.938 91.7917 156.688 99.5417 156.688 109.5V115.438C156.688 132.229 152.208 145.021 143.25 153.812C134.292 162.562 120.646 167.375 102.312 168.25L101.062 152.5C126.396 151.458 139.083 140.917 139.125 120.875H137.5C136.375 125.5 134.125 129.083 130.75 131.625C127.417 134.125 123.312 135.375 118.438 135.375ZM125.125 119.688C129.625 119.688 133.104 118.521 135.562 116.188C138.021 113.854 139.25 110.562 139.25 106.312C139.25 102.312 138.021 99.2083 135.562 97C133.146 94.75 129.75 93.625 125.375 93.625C121 93.625 117.604 94.7917 115.188 97.125C112.812 99.4583 111.625 102.792 111.625 107.125C111.625 111.167 112.792 114.271 115.125 116.438C117.458 118.604 120.792 119.688 125.125 119.688Z" fill="#26A269"/>
</svg>
