<svg width="256" height="256" viewBox="0 0 256 256" fill="none" xmlns="http://www.w3.org/2000/svg">
<path d="M128 16C66.3125 16 16 66.3125 16 128C16 189.688 66.3125 240 128 240C189.688 240 240 189.688 240 128C240 66.3125 189.688 16 128 16ZM128 48C172.062 48 208 83.9375 208 128C208 172.062 172.062 208 128 208C83.9375 208 48 172.062 48 128C48 83.9375 83.9375 48 128 48Z" fill="#E01B24"/>
<path d="M98.4375 166V149C111.479 142.042 121.208 134.792 127.625 127.25C134.042 119.667 137.25 111.854 137.25 103.812C137.25 95.7292 133.25 91.6875 125.25 91.6875C121.708 91.6875 118 92.6667 114.125 94.625C110.292 96.5833 106.979 99.1875 104.188 102.438L94.5625 91.25C97.6458 86.6667 102.021 82.9792 107.688 80.1875C113.354 77.3958 119.292 76 125.5 76C144.875 76 154.562 84.9167 154.562 102.75C154.562 119.542 144.625 134.958 124.75 149V151.375H158.312V166H98.4375Z" fill="#E01B24"/>
</svg>
