<?xml version="1.0" standalone="no"?>
<!DOCTYPE svg PUBLIC "-//W3C//DTD SVG 20010904//EN"
 "http://www.w3.org/TR/2001/REC-SVG-20010904/DTD/svg10.dtd">
<svg version="1.0" xmlns="http://www.w3.org/2000/svg"
 width="1316.000000pt" height="69.000000pt" viewBox="0 0 1316.000000 69.000000"
 preserveAspectRatio="xMidYMid meet">
<metadata>
Created by potrace 1.16, written by Peter Selinger 2001-2019
</metadata>
<g transform="translate(0.000000,69.000000) scale(0.100000,-0.100000)"
fill="#000000" stroke="none">
<path d="M0 345 l0 -345 6580 0 6580 0 0 345 0 345 -6580 0 -6580 0 0 -345z
m470 115 l0 -120 -110 0 -110 0 0 120 0 120 110 0 110 0 0 -120z m260 0 l0
-120 -120 0 -120 0 0 120 0 120 120 0 120 0 0 -120z m3296 -32 c41 -39 74 -76
74 -82 0 -7 -33 -45 -74 -85 -64 -64 -77 -73 -90 -61 -23 19 -20 30 21 72 l37
38 -125 0 c-132 0 -169 10 -156 44 5 14 25 16 142 16 74 0 135 4 135 8 0 4
-16 23 -35 42 -19 19 -35 39 -35 45 0 11 20 35 28 35 2 0 37 -32 78 -72z
m-3558 -220 l3 -108 -111 0 -110 0 0 110 0 111 108 -3 107 -3 3 -107z m262 2
l0 -110 -120 0 -120 0 0 110 0 110 120 0 120 0 0 -110z"/>
</g>
</svg>
