<svg width="48" height="48" viewBox="0 0 48 48" fill="none" xmlns="http://www.w3.org/2000/svg">
<g clip-path="url(#clip0_9_61)">
<path d="M9 0C4.01953 0 0 4.01953 0 9V30C0 34.9805 4.01953 39 9 39H39C43.9805 39 48 34.9805 48 30V9C48 4.01953 43.9805 0 39 0H9ZM9 6H39C40.6641 6 42 7.33594 42 9V30C42 31.6641 40.6641 33 39 33H9C7.33594 33 6 31.6641 6 30V9C6 7.33594 7.33594 6 9 6ZM15 42C11.6836 42 9 44.6836 9 48H39C39 44.6836 36.3164 42 33 42H15Z" fill="#222222"/>
<path fill-rule="evenodd" clip-rule="evenodd" d="M31.0205 6.74999C31.4717 6.75683 31.916 6.93456 32.251 7.27636L37.3574 12.5264C38.0205 13.21 38.0205 14.29 37.3574 14.9736L32.251 20.2236C31.5811 20.9141 30.4736 20.9277 29.7764 20.251C29.0859 19.581 29.0723 18.4736 29.7422 17.7764L31.9639 15.5H20.5C18.1689 15.5 18.1689 12 20.5 12H31.9639L29.7422 9.72362C29.0723 9.02636 29.0859 7.91894 29.7764 7.24218C30.125 6.90722 30.5762 6.74316 31.0205 6.74999Z" fill="#222222"/>
<path fill-rule="evenodd" clip-rule="evenodd" d="M16.9727 17.25C16.5283 17.2568 16.084 17.4346 15.7422 17.7764L10.6357 23.0264C9.97949 23.71 9.97949 24.79 10.6357 25.4736L15.7422 30.7236C16.4189 31.4141 17.5264 31.4277 18.2168 30.751C18.9141 30.081 18.9277 28.9736 18.251 28.2764L16.0361 26H27.5C29.8311 26 29.8311 22.5 27.5 22.5H16.0361L18.251 20.2236C18.9277 19.5264 18.9141 18.4189 18.2168 17.7422C17.875 17.4072 17.4238 17.2432 16.9727 17.25Z" fill="#222222"/>
</g>
<defs>
<clipPath id="clip0_9_61">
<rect width="48" height="48" fill="white"/>
</clipPath>
</defs>
</svg>
