<svg width="149" height="58" viewBox="0 0 149 58" fill="none" xmlns="http://www.w3.org/2000/svg">
<rect width="149" height="58" rx="29" fill="#C01C28"/>
<path d="M12.5 41V17.7273H22.5455C24.2727 17.7273 25.7841 18.0417 27.0795 18.6705C28.375 19.2992 29.3826 20.2045 30.1023 21.3864C30.822 22.5682 31.1818 23.9848 31.1818 25.6364C31.1818 27.303 30.8106 28.7083 30.0682 29.8523C29.3333 30.9962 28.2992 31.8598 26.9659 32.4432C25.6402 33.0265 24.0909 33.3182 22.3182 33.3182H16.3182V28.4091H21.0455C21.7879 28.4091 22.4205 28.3182 22.9432 28.1364C23.4735 27.947 23.8788 27.6477 24.1591 27.2386C24.447 26.8295 24.5909 26.2955 24.5909 25.6364C24.5909 24.9697 24.447 24.428 24.1591 24.0114C23.8788 23.5871 23.4735 23.2765 22.9432 23.0795C22.4205 22.875 21.7879 22.7727 21.0455 22.7727H18.8182V41H12.5ZM26.1364 30.3182L31.9545 41H25.0909L19.4091 30.3182H26.1364ZM41.9545 41.3182C40.0909 41.3182 38.4848 40.9621 37.1364 40.25C35.7955 39.5303 34.7614 38.5 34.0341 37.1591C33.3144 35.8106 32.9545 34.197 32.9545 32.3182C32.9545 30.5152 33.3182 28.9394 34.0455 27.5909C34.7727 26.2424 35.7992 25.1932 37.125 24.4432C38.4508 23.6932 40.0152 23.3182 41.8182 23.3182C43.1364 23.3182 44.3295 23.5227 45.3977 23.9318C46.4659 24.3409 47.3788 24.9356 48.1364 25.7159C48.8939 26.4886 49.4773 27.428 49.8864 28.5341C50.2955 29.6402 50.5 30.8864 50.5 32.2727V33.7273H34.9091V30.2727H44.7273C44.7197 29.7727 44.5909 29.3333 44.3409 28.9545C44.0985 28.5682 43.7689 28.2689 43.3523 28.0568C42.9432 27.8371 42.4773 27.7273 41.9545 27.7273C41.447 27.7273 40.9811 27.8371 40.5568 28.0568C40.1326 28.2689 39.7917 28.5644 39.5341 28.9432C39.2841 29.322 39.1515 29.7652 39.1364 30.2727V34C39.1364 34.5606 39.2538 35.0606 39.4886 35.5C39.7235 35.9394 40.0606 36.2841 40.5 36.5341C40.9394 36.7841 41.4697 36.9091 42.0909 36.9091C42.5227 36.9091 42.9167 36.8485 43.2727 36.7273C43.6364 36.6061 43.947 36.4318 44.2045 36.2045C44.4621 35.9697 44.6515 35.6894 44.7727 35.3636H50.5C50.303 36.5758 49.8371 37.6288 49.1023 38.5227C48.3674 39.4091 47.3939 40.0985 46.1818 40.5909C44.9773 41.0758 43.5682 41.3182 41.9545 41.3182ZM53.0597 41V23.5455H59.0142V26.8636H59.196C59.5597 25.7727 60.1809 24.9091 61.0597 24.2727C61.9384 23.6364 62.9839 23.3182 64.196 23.3182C65.4233 23.3182 66.4801 23.6439 67.3665 24.2955C68.2528 24.9394 68.7869 25.7955 68.9688 26.8636H69.1506C69.446 25.7955 70.0748 24.9394 71.0369 24.2955C71.9991 23.6439 73.1278 23.3182 74.4233 23.3182C76.0975 23.3182 77.4536 23.8561 78.4915 24.9318C79.5369 26.0076 80.0597 27.4394 80.0597 29.2273V41H73.7869V30.8182C73.7869 30.053 73.5938 29.4545 73.2074 29.0227C72.821 28.5833 72.3021 28.3636 71.6506 28.3636C71.0066 28.3636 70.4953 28.5833 70.1165 29.0227C69.7453 29.4545 69.5597 30.053 69.5597 30.8182V41H63.5597V30.8182C63.5597 30.053 63.3665 29.4545 62.9801 29.0227C62.5938 28.5833 62.0748 28.3636 61.4233 28.3636C60.9915 28.3636 60.6203 28.4621 60.3097 28.6591C59.9991 28.8561 59.7566 29.1402 59.5824 29.5114C59.4157 29.875 59.3324 30.3106 59.3324 30.8182V41H53.0597ZM91.5625 41.3182C89.6686 41.3182 88.0473 40.9432 86.6989 40.1932C85.3504 39.4356 84.3163 38.3826 83.5966 37.0341C82.8769 35.678 82.517 34.1061 82.517 32.3182C82.517 30.5303 82.8769 28.9621 83.5966 27.6136C84.3163 26.2576 85.3504 25.2045 86.6989 24.4545C88.0473 23.697 89.6686 23.3182 91.5625 23.3182C93.4564 23.3182 95.0777 23.697 96.4261 24.4545C97.7746 25.2045 98.8087 26.2576 99.5284 27.6136C100.248 28.9621 100.608 30.5303 100.608 32.3182C100.608 34.1061 100.248 35.678 99.5284 37.0341C98.8087 38.3826 97.7746 39.4356 96.4261 40.1932C95.0777 40.9432 93.4564 41.3182 91.5625 41.3182ZM91.608 36.6818C92.1383 36.6818 92.5966 36.5038 92.983 36.1477C93.3693 35.7917 93.6686 35.2841 93.8807 34.625C94.0928 33.9659 94.1989 33.1818 94.1989 32.2727C94.1989 31.3561 94.0928 30.572 93.8807 29.9205C93.6686 29.2614 93.3693 28.7538 92.983 28.3977C92.5966 28.0417 92.1383 27.8636 91.608 27.8636C91.0473 27.8636 90.5663 28.0417 90.1648 28.3977C89.7633 28.7538 89.4564 29.2614 89.2443 29.9205C89.0322 30.572 88.9261 31.3561 88.9261 32.2727C88.9261 33.1818 89.0322 33.9659 89.2443 34.625C89.4564 35.2841 89.7633 35.7917 90.1648 36.1477C90.5663 36.5038 91.0473 36.6818 91.608 36.6818ZM120.213 23.5455L114.349 41H107.077L101.213 23.5455H107.804L110.622 35.0909H110.804L113.622 23.5455H120.213ZM129.83 41.3182C127.966 41.3182 126.36 40.9621 125.011 40.25C123.67 39.5303 122.636 38.5 121.909 37.1591C121.189 35.8106 120.83 34.197 120.83 32.3182C120.83 30.5152 121.193 28.9394 121.92 27.5909C122.648 26.2424 123.674 25.1932 125 24.4432C126.326 23.6932 127.89 23.3182 129.693 23.3182C131.011 23.3182 132.205 23.5227 133.273 23.9318C134.341 24.3409 135.254 24.9356 136.011 25.7159C136.769 26.4886 137.352 27.428 137.761 28.5341C138.17 29.6402 138.375 30.8864 138.375 32.2727V33.7273H122.784V30.2727H132.602C132.595 29.7727 132.466 29.3333 132.216 28.9545C131.973 28.5682 131.644 28.2689 131.227 28.0568C130.818 27.8371 130.352 27.7273 129.83 27.7273C129.322 27.7273 128.856 27.8371 128.432 28.0568C128.008 28.2689 127.667 28.5644 127.409 28.9432C127.159 29.322 127.027 29.7652 127.011 30.2727V34C127.011 34.5606 127.129 35.0606 127.364 35.5C127.598 35.9394 127.936 36.2841 128.375 36.5341C128.814 36.7841 129.345 36.9091 129.966 36.9091C130.398 36.9091 130.792 36.8485 131.148 36.7273C131.511 36.6061 131.822 36.4318 132.08 36.2045C132.337 35.9697 132.527 35.6894 132.648 35.3636H138.375C138.178 36.5758 137.712 37.6288 136.977 38.5227C136.242 39.4091 135.269 40.0985 134.057 40.5909C132.852 41.0758 131.443 41.3182 129.83 41.3182Z" fill="white"/>
</svg>
