<svg width="174" height="58" viewBox="0 0 174 58" fill="none" xmlns="http://www.w3.org/2000/svg">
<rect width="174" height="58" rx="29" fill="#33D17A"/>
<path d="M27.5 44V20.7273H37.5455C39.2727 20.7273 40.7841 21.0417 42.0795 21.6705C43.375 22.2992 44.3826 23.2045 45.1023 24.3864C45.822 25.5682 46.1818 26.9848 46.1818 28.6364C46.1818 30.303 45.8106 31.7083 45.0682 32.8523C44.3333 33.9962 43.2992 34.8598 41.9659 35.4432C40.6402 36.0265 39.0909 36.3182 37.3182 36.3182H31.3182V31.4091H36.0455C36.7879 31.4091 37.4205 31.3182 37.9432 31.1364C38.4735 30.947 38.8788 30.6477 39.1591 30.2386C39.447 29.8295 39.5909 29.2955 39.5909 28.6364C39.5909 27.9697 39.447 27.428 39.1591 27.0114C38.8788 26.5871 38.4735 26.2765 37.9432 26.0795C37.4205 25.875 36.7879 25.7727 36.0455 25.7727H33.8182V44H27.5ZM41.1364 33.3182L46.9545 44H40.0909L34.4091 33.3182H41.1364ZM56.9545 44.3182C55.0909 44.3182 53.4848 43.9621 52.1364 43.25C50.7955 42.5303 49.7614 41.5 49.0341 40.1591C48.3144 38.8106 47.9545 37.197 47.9545 35.3182C47.9545 33.5152 48.3182 31.9394 49.0455 30.5909C49.7727 29.2424 50.7992 28.1932 52.125 27.4432C53.4508 26.6932 55.0152 26.3182 56.8182 26.3182C58.1364 26.3182 59.3295 26.5227 60.3977 26.9318C61.4659 27.3409 62.3788 27.9356 63.1364 28.7159C63.8939 29.4886 64.4773 30.428 64.8864 31.5341C65.2955 32.6402 65.5 33.8864 65.5 35.2727V36.7273H49.9091V33.2727H59.7273C59.7197 32.7727 59.5909 32.3333 59.3409 31.9545C59.0985 31.5682 58.7689 31.2689 58.3523 31.0568C57.9432 30.8371 57.4773 30.7273 56.9545 30.7273C56.447 30.7273 55.9811 30.8371 55.5568 31.0568C55.1326 31.2689 54.7917 31.5644 54.5341 31.9432C54.2841 32.322 54.1515 32.7652 54.1364 33.2727V37C54.1364 37.5606 54.2538 38.0606 54.4886 38.5C54.7235 38.9394 55.0606 39.2841 55.5 39.5341C55.9394 39.7841 56.4697 39.9091 57.0909 39.9091C57.5227 39.9091 57.9167 39.8485 58.2727 39.7273C58.6364 39.6061 58.947 39.4318 59.2045 39.2045C59.4621 38.9697 59.6515 38.6894 59.7727 38.3636H65.5C65.303 39.5758 64.8371 40.6288 64.1023 41.5227C63.3674 42.4091 62.3939 43.0985 61.1818 43.5909C59.9773 44.0758 58.5682 44.3182 56.9545 44.3182ZM74.3324 34.1818V44H68.0597V26.5455H74.0142V29.8636H74.196C74.5748 28.7576 75.2415 27.8902 76.196 27.2614C77.1581 26.6326 78.2794 26.3182 79.5597 26.3182C80.7945 26.3182 81.8665 26.6023 82.7756 27.1705C83.6922 27.7311 84.4006 28.5038 84.9006 29.4886C85.4081 30.4735 85.6581 31.5985 85.6506 32.8636V44H79.3778V34.1818C79.3854 33.3182 79.1657 32.6402 78.7188 32.1477C78.2794 31.6553 77.6657 31.4091 76.8778 31.4091C76.3627 31.4091 75.9119 31.5227 75.5256 31.75C75.1468 31.9697 74.8551 32.2879 74.6506 32.7045C74.446 33.1136 74.34 33.6061 74.3324 34.1818ZM93.6108 44.2727C92.4972 44.2727 91.5123 44.0909 90.6562 43.7273C89.8078 43.3561 89.1411 42.7955 88.6562 42.0455C88.1714 41.2955 87.929 40.3409 87.929 39.1818C87.929 38.2273 88.0919 37.4129 88.4176 36.7386C88.7434 36.0568 89.1979 35.5 89.7812 35.0682C90.3646 34.6364 91.0426 34.3068 91.8153 34.0795C92.5956 33.8523 93.4366 33.7045 94.3381 33.6364C95.3153 33.5606 96.0994 33.4697 96.6903 33.3636C97.2888 33.25 97.7206 33.0947 97.9858 32.8977C98.2509 32.6932 98.3835 32.4242 98.3835 32.0909V32.0455C98.3835 31.5909 98.2093 31.2424 97.8608 31C97.5123 30.7576 97.0653 30.6364 96.5199 30.6364C95.9214 30.6364 95.4328 30.7689 95.054 31.0341C94.6828 31.2917 94.4593 31.6894 94.3835 32.2273H88.6108C88.6866 31.1667 89.0237 30.1894 89.6222 29.2955C90.2282 28.3939 91.1108 27.6742 92.2699 27.1364C93.429 26.5909 94.8759 26.3182 96.6108 26.3182C97.8608 26.3182 98.982 26.4659 99.9744 26.7614C100.967 27.0492 101.812 27.4545 102.509 27.9773C103.205 28.4924 103.736 29.0985 104.099 29.7955C104.471 30.4848 104.656 31.2348 104.656 32.0455V44H98.7926V41.5455H98.6562C98.3078 42.197 97.8835 42.7235 97.3835 43.125C96.8911 43.5265 96.3267 43.8182 95.6903 44C95.0616 44.1818 94.3684 44.2727 93.6108 44.2727ZM95.6562 40.3182C96.1335 40.3182 96.5805 40.2197 96.9972 40.0227C97.4214 39.8258 97.7661 39.5417 98.0312 39.1705C98.2964 38.7992 98.429 38.3485 98.429 37.8182V36.3636C98.2623 36.4318 98.0843 36.4962 97.8949 36.5568C97.7131 36.6174 97.5161 36.6742 97.304 36.7273C97.0994 36.7803 96.8797 36.8295 96.6449 36.875C96.4176 36.9205 96.179 36.9621 95.929 37C95.4441 37.0758 95.0464 37.2008 94.7358 37.375C94.4328 37.5417 94.2055 37.75 94.054 38C93.91 38.2424 93.8381 38.5152 93.8381 38.8182C93.8381 39.303 94.0085 39.6742 94.3494 39.9318C94.6903 40.1894 95.1259 40.3182 95.6562 40.3182ZM107.653 44V26.5455H113.608V29.8636H113.79C114.153 28.7727 114.775 27.9091 115.653 27.2727C116.532 26.6364 117.578 26.3182 118.79 26.3182C120.017 26.3182 121.074 26.6439 121.96 27.2955C122.847 27.9394 123.381 28.7955 123.562 29.8636H123.744C124.04 28.7955 124.669 27.9394 125.631 27.2955C126.593 26.6439 127.722 26.3182 129.017 26.3182C130.691 26.3182 132.047 26.8561 133.085 27.9318C134.131 29.0076 134.653 30.4394 134.653 32.2273V44H128.381V33.8182C128.381 33.053 128.188 32.4545 127.801 32.0227C127.415 31.5833 126.896 31.3636 126.244 31.3636C125.6 31.3636 125.089 31.5833 124.71 32.0227C124.339 32.4545 124.153 33.053 124.153 33.8182V44H118.153V33.8182C118.153 33.053 117.96 32.4545 117.574 32.0227C117.188 31.5833 116.669 31.3636 116.017 31.3636C115.585 31.3636 115.214 31.4621 114.903 31.6591C114.593 31.8561 114.35 32.1402 114.176 32.5114C114.009 32.875 113.926 33.3106 113.926 33.8182V44H107.653ZM146.111 44.3182C144.247 44.3182 142.641 43.9621 141.293 43.25C139.952 42.5303 138.918 41.5 138.19 40.1591C137.471 38.8106 137.111 37.197 137.111 35.3182C137.111 33.5152 137.474 31.9394 138.202 30.5909C138.929 29.2424 139.955 28.1932 141.281 27.4432C142.607 26.6932 144.171 26.3182 145.974 26.3182C147.293 26.3182 148.486 26.5227 149.554 26.9318C150.622 27.3409 151.535 27.9356 152.293 28.7159C153.05 29.4886 153.634 30.428 154.043 31.5341C154.452 32.6402 154.656 33.8864 154.656 35.2727V36.7273H139.065V33.2727H148.884C148.876 32.7727 148.747 32.3333 148.497 31.9545C148.255 31.5682 147.925 31.2689 147.509 31.0568C147.099 30.8371 146.634 30.7273 146.111 30.7273C145.603 30.7273 145.137 30.8371 144.713 31.0568C144.289 31.2689 143.948 31.5644 143.69 31.9432C143.44 32.322 143.308 32.7652 143.293 33.2727V37C143.293 37.5606 143.41 38.0606 143.645 38.5C143.88 38.9394 144.217 39.2841 144.656 39.5341C145.096 39.7841 145.626 39.9091 146.247 39.9091C146.679 39.9091 147.073 39.8485 147.429 39.7273C147.793 39.6061 148.103 39.4318 148.361 39.2045C148.618 38.9697 148.808 38.6894 148.929 38.3636H154.656C154.459 39.5758 153.993 40.6288 153.259 41.5227C152.524 42.4091 151.55 43.0985 150.338 43.5909C149.134 44.0758 147.724 44.3182 146.111 44.3182Z" fill="white"/>
</svg>
